<svg xmlns="http://www.w3.org/2000/svg" viewBox="0 0 200 200" width="100%" height="100%">
  <!-- Background -->
  <rect width="200" height="200" fill="#1E232B" />
  
  <!-- Silver Arrow Swish -->
  <path d="M40 160 C70 140, 110 130, 150 90 L140 80 L170 70 L160 100 L150 90 C110 140, 70 150, 40 160 Z" fill="#E0E0E0" />
  
  <!-- Green Leaf/Wheat Stalk -->
  <path d="M50 140 C60 120, 90 90, 140 50 C130 50, 110 55, 100 70 C100 70, 85 80, 80 95 C80 95, 65 110, 60 125 C60 125, 55 135, 50 140 Z" fill="#4CAF50" />
  <path d="M65 110 C75 95, 95 75, 125 55 C115 60, 100 70, 90 85 Z" fill="#388E3C" />
  <path d="M85 85 C95 75, 110 60, 130 50 C120 55, 110 65, 105 75 Z" fill="#388E3C" />
</svg>
